<svg width="69" height="69" viewBox="0 0 69 69" fill="none" xmlns="http://www.w3.org/2000/svg">
<path d="M47.8103 40.3238C47.5409 40.6061 47.1698 40.7912 46.7391 40.8059C45.9065 40.8343 45.2089 40.1684 45.1985 39.3353L45.0012 23.4209L29.0948 23.9638C28.2621 23.9922 27.5645 23.3263 27.5542 22.4932C27.5438 21.6601 28.2244 20.9472 29.057 20.9188L46.4851 20.3239C47.3178 20.2955 48.0154 20.9614 48.0257 21.7945L48.242 39.2314C48.2473 39.6623 48.0797 40.0416 47.8103 40.3238Z" fill="white"/>
<path d="M47.3547 23.1394L23.4934 48.1373C22.9122 48.7463 21.936 48.7796 21.3401 48.2108C20.7442 47.642 20.732 46.6653 21.3133 46.0563L45.1746 21.0584C45.7559 20.4494 46.7321 20.4161 47.328 20.9849C47.9239 21.5537 47.936 22.5304 47.3547 23.1394Z" fill="white"/>
</svg>
